<?xml version="1.0" encoding="UTF-8"?>
<svg id="Layer_1" data-name="Layer 1" xmlns="http://www.w3.org/2000/svg" xmlns:xlink="http://www.w3.org/1999/xlink" viewBox="0 0 377.03 189.7">
  <defs>
    <style>
      .cls-1 {
        fill: url(#linear-gradient-2);
      }

      .cls-2 {
        fill: #f47721;
      }

      .cls-3 {
        fill: url(#linear-gradient-4);
      }

      .cls-4 {
        fill: url(#linear-gradient-3);
      }

      .cls-5 {
        fill: url(#linear-gradient-5);
      }

      .cls-6 {
        fill: url(#linear-gradient-8);
      }

      .cls-7 {
        fill: url(#linear-gradient-7);
      }

      .cls-8 {
        fill: url(#linear-gradient-6);
      }

      .cls-9 {
        fill: #1f3062;
      }

      .cls-10 {
        fill: url(#linear-gradient);
      }
    </style>
    <linearGradient id="linear-gradient" x1="13.43" y1="94.83" x2="47.49" y2="94.83" gradientUnits="userSpaceOnUse">
      <stop offset="0" stop-color="#203162"/>
      <stop offset="1" stop-color="#f47721"/>
    </linearGradient>
    <linearGradient id="linear-gradient-2" x1="44.83" y1="128.47" x2="78.66" y2="128.47" xlink:href="#linear-gradient"/>
    <linearGradient id="linear-gradient-3" x1="76" y1="94.8" x2="109.96" y2="94.8" xlink:href="#linear-gradient"/>
    <linearGradient id="linear-gradient-4" x1="44.85" y1="61.13" x2="78.66" y2="61.13" xlink:href="#linear-gradient"/>
    <linearGradient id="linear-gradient-5" x1="41.21" y1="74.67" x2="55.15" y2="74.67" xlink:href="#linear-gradient"/>
    <linearGradient id="linear-gradient-6" x1="72.67" y1="108.23" x2="86.57" y2="108.23" xlink:href="#linear-gradient"/>
    <linearGradient id="linear-gradient-7" x1="37.41" y1="108.23" x2="51.32" y2="108.23" xlink:href="#linear-gradient"/>
    <linearGradient id="linear-gradient-8" x1="68.83" y1="74.55" x2="82.77" y2="74.55" xlink:href="#linear-gradient"/>
  </defs>
  <g>
    <path class="cls-9" d="M129.03,73.71l8.76,21.57,8.99-21.57h9.35v36.19h-7.2c.07-8.65-.42-17.33.96-25.89l-8.75,20.14c-.18.25-.44.22-.71.25-1.06.13-4,.13-5.06,0-.98-.12-1.4-1.62-1.83-2.49-2.77-5.69-4.59-11.5-7.09-17.12-.13-.29-.12-.71-.54-.77,1.32,8.57.92,17.23.96,25.89h-7.2v-36.19h9.35Z"/>
    <path class="cls-9" d="M191.15,109.91h-8.27l-9.4-13.37-1.51-.05v13.42h-7.68v-35.95h14.99c.73,0,3.16.76,3.95,1.08,5.23,2.11,7.2,7.53,6.13,12.83-.86,4.25-4.21,6.6-8.04,8.02l9.83,14.02ZM171.72,90.25h6.12c.33,0,1.99-.76,2.36-1,2.79-1.84,2.58-6.33-.24-8.07-.3-.19-1.64-.76-1.88-.76h-6.36v9.83Z"/>
    <polygon class="cls-9" points="225.69 73.95 214.21 91.85 225.69 109.91 217.05 109.91 209.37 96.72 201.1 109.91 192.59 109.91 204.09 91.81 192.59 73.95 201.1 73.95 209.26 86.65 217.17 73.95 225.69 73.95"/>
  </g>
  <g>
    <path class="cls-2" d="M237.68,105.35v14.14h-6.72v-35h6.72v2.88s3.19-2.44,3.19-2.44c11.78-4.51,19.89,10.24,12.4,19.34-2.97,3.61-8.39,5.26-12.73,3.12-1.16-.57-1.75-1.57-2.87-2.05ZM247.67,91.77c-1.58-1.58-4.21-1.98-6.28-1.3-6.28,2.06-4.57,12.8,3.11,11.74,4.83-.67,6.47-7.14,3.17-10.44Z"/>
    <path class="cls-2" d="M284.16,84.09c17.95-2.04,19.46,23.34,2.57,24.38-16.52,1.02-18.33-22.59-2.57-24.38ZM281.66,91.77c-3.22,3.21-1.46,9.94,3.39,10.46,4.88.52,7.91-3.77,6.37-8.28-1.39-4.08-6.73-5.2-9.76-2.18Z"/>
    <path class="cls-2" d="M345.13,97.92h-17.27c.93,5.63,8.14,6.35,11.39,2.21l4.63,3.18c-4.91,8.21-18.51,6.1-21.9-2.52-4.02-10.22,6.12-19.82,16.25-16,3.28,1.24,6.89,5.3,6.89,8.93v4.19ZM338.41,93.61c-.69-5.86-9.18-5.47-10.31,0h10.31Z"/>
    <rect class="cls-2" x="261.18" y="72.03" width="6.72" height="35.95"/>
    <path class="cls-2" d="M318.51,84.26v6.71c-2.74-.17-5.14,0-6.82,2.41-.28.4-1.09,2.12-1.09,2.5v12.1h-6.72v-23.49h6.48v3.6c.58.13.39-.1.54-.31,1.91-2.79,4.21-3.75,7.62-3.52Z"/>
    <path class="cls-2" d="M365.04,84.26v6.71c-2.74-.17-5.14,0-6.82,2.41-.28.4-1.09,2.12-1.09,2.5v12.1h-6.72v-23.49h6.48v3.6c.58.13.39-.1.54-.31,1.91-2.79,4.21-3.75,7.62-3.52Z"/>
  </g>
  <g>
    <path class="cls-10" d="M31.41,111.58c.21.28,5.31-3.22,6.01-3.47.83-.29,1.53.2,2.14.72l-9.19,5.34-16.46-9.42-.48-.72.03-18.89c4.56-2.78,9.23-5.57,13.95-8.11.68-.37,2.73-1.65,3.28-1.54l16.67,9.49.13,19.49-1.68,1.02c-.4.27-2.03-.94-1.92-1.1l1.68-.72v-16.54l-14.15,7.91v16.54ZM44.6,85.22l-13.5-7.49-.75-.18-12.05,6.67-2,1.36,14.03,8.03,14.27-8.39ZM29.49,111.58v-16.18l-2-1.36-12.15-6.91v16.54l14.15,7.91Z"/>
    <path class="cls-1" d="M44.88,138.39l-.05-19.27.4-.8,16.3-9.13,17.02,9.34.12,19.3c-.12.61-1.85,1.45-2.48,1.84-4.69,2.87-9.64,5.4-14.43,8.09l-16.87-9.37ZM61.55,111.15l-13.82,7.98,13.68,8.16,14.37-8.16c-4.67-2.78-9.37-5.55-14.23-7.98ZM60.91,145.14v-15.94c-4.61-3.1-9.59-5.69-14.39-8.51v16.54l14.39,7.91ZM76.98,120.93l-14.39,8.03v16.18l14.39-8.27v-15.94Z"/>
    <path class="cls-4" d="M77.94,103.31l1.92,1.44c-.75.42-1.22,1.03-2.16.74-.32-.1-1.65-.91-1.69-1.21l.02-18.95c.11-.57.81-.82,1.28-1.12,5-3.14,10.59-5.74,15.67-8.78l16.83,9.34.16,19.62-16.83,9.78-8.85-4.98.03-.49c.47-.04.92-.52,1.3-.62.71-.18,5.34,3.15,6.48,3.5v-16.18l-14.15-8.27v16.18ZM107.2,85.22l-14.27-7.83c-4.47,2.64-9.08,5.08-13.56,7.71-.25.15-.59-.03-.48.47l14.03,8.02,14.27-8.38ZM108.16,87.13l-14.39,8.27v16.18l14.39-7.91v-16.54Z"/>
    <path class="cls-3" d="M46.52,69.52l2.16,1.32c-1.19,1.58-2.94,1.22-3.83-.37l.11-19.29,16.77-9.35,16.82,9.35.11,19.29c-.79,1.64-2.27,1.43-3.59.49l1.92-1.08v-16.54l-14.39,8.27v16.18c1.61-.21,5.43-3.48,6.64-3.55.26-.01,1.58.79,1.76,1.15l-9.26,5.04-8.97-4.8.15-.49c.49-.01.86-.57,1.23-.66,1.24-.32,5.23,3.2,6.77,3.31v-15.94l-14.39-8.51v16.18ZM61.55,43.8l-13.83,7.98c4.47,2.83,9.14,5.51,13.81,8.03l14.25-8.03-14.22-7.98Z"/>
    <path class="cls-5" d="M55.15,69.64l-.05,2.11-13.86,7.96c.07-.73-.24-1.69.24-2.27l13.67-7.79Z"/>
    <polygon class="cls-8" points="72.67 113.26 72.9 110.98 86.57 103.19 86.34 105.47 72.67 113.26"/>
    <polygon class="cls-7" points="51.32 113.26 37.64 105.47 37.41 103.19 51.08 110.98 51.32 113.26"/>
    <path class="cls-6" d="M82.74,79.46l-13.87-7.71-.04-2.12,13.67,7.79c.46.54.18,1.36.24,2.03Z"/>
  </g>
</svg>